<?xml version="1.0" encoding="UTF-8"?>
<!-- Generator: visioncortex VTracer 0.6.4 -->
<svg version="1.1" xmlns="http://www.w3.org/2000/svg" width="500" height="500">
<path d="M0 0 C1.6 -0 3.21 -0.01 4.81 -0.01 C8.16 -0.02 11.51 -0.01 14.86 0.01 C19.14 0.03 23.41 0.02 27.69 -0 C31 -0.02 34.31 -0.01 37.62 -0 C39.19 -0 40.77 -0 42.34 -0.01 C52.5 -0.06 58.89 0.84 67.43 6.53 C67.43 7.19 67.43 7.85 67.43 8.53 C68.09 8.53 68.75 8.53 69.43 8.53 C71.09 10.39 71.09 10.39 72.93 12.84 C73.54 13.64 74.15 14.44 74.78 15.27 C76.04 16.99 77.25 18.75 78.43 20.53 C80.54 20.97 80.54 20.97 83.02 20.88 C83.99 20.88 84.96 20.88 85.96 20.88 C87.02 20.87 88.08 20.85 89.18 20.84 C90.86 20.84 90.86 20.84 92.57 20.83 C96.29 20.82 100.01 20.79 103.72 20.75 C106.3 20.74 108.88 20.73 111.46 20.73 C118.96 20.7 126.47 20.66 133.97 20.61 C144.15 20.54 154.32 20.49 164.5 20.46 C168.3 20.44 172.09 20.41 175.89 20.38 C178.23 20.37 180.57 20.36 182.91 20.35 C183.96 20.34 185.01 20.33 186.1 20.32 C193.77 20.3 201.06 20.75 207.43 25.53 C207.43 26.19 207.43 26.85 207.43 27.53 C208.09 27.53 208.75 27.53 209.43 27.53 C212.13 31.62 213.6 34.29 213.75 39.22 C213.91 42.48 213.91 42.48 215.94 44.85 C217.74 45.81 219.59 46.67 221.43 47.53 C224.43 50.82 224.43 50.82 224.43 53.53 C225.09 53.53 225.75 53.53 226.43 53.53 C228.47 57.73 228.75 61.52 228.7 66.11 C228.69 66.85 228.69 67.59 228.68 68.35 C228.54 76.53 227.58 84.59 226.53 92.7 C226.17 95.43 225.83 98.17 225.49 100.9 C225.03 104.66 224.57 108.41 224.1 112.17 C223.13 119.93 222.24 127.7 221.37 135.47 C221.29 136.18 221.21 136.89 221.13 137.62 C220.12 146.71 219.2 155.8 218.37 164.91 C218.28 165.88 218.19 166.84 218.1 167.84 C217.67 172.57 217.24 177.29 216.83 182.02 C214.04 213.54 214.04 213.54 201.43 225.53 C195.06 230.27 188.35 231.83 180.53 231.8 C179.76 231.8 178.98 231.81 178.18 231.81 C175.58 231.83 172.99 231.82 170.39 231.82 C168.53 231.83 166.66 231.83 164.8 231.84 C159.74 231.86 154.68 231.86 149.62 231.87 C146.45 231.87 143.29 231.87 140.13 231.88 C129.08 231.9 118.03 231.9 106.98 231.9 C96.7 231.9 86.41 231.92 76.13 231.95 C67.29 231.98 58.45 231.99 49.61 231.99 C44.34 231.99 39.06 231.99 33.79 232.02 C28.82 232.03 23.86 232.03 18.89 232.02 C17.07 232.02 15.26 232.02 13.44 232.03 C3.72 232.1 -4.62 231.92 -13.57 227.53 C-13.57 226.87 -13.57 226.21 -13.57 225.53 C-14.4 225.19 -14.4 225.19 -15.25 224.84 C-21.07 221.54 -25.26 216.05 -27.12 209.64 C-28.97 200.73 -29.6 191.67 -30.41 182.62 C-30.57 180.77 -30.74 178.91 -30.91 177.06 C-31.36 172.19 -31.8 167.31 -32.24 162.44 C-33.02 153.77 -33.8 145.1 -34.59 136.43 C-34.68 135.51 -34.76 134.58 -34.85 133.63 C-36.02 120.8 -37.35 108 -38.99 95.22 C-42.89 64.62 -42.89 64.62 -37.02 56.35 C-35.2 52.82 -35.14 49.76 -35.16 45.89 C-35.15 45.16 -35.14 44.43 -35.13 43.68 C-35.09 41.36 -35.08 39.04 -35.07 36.72 C-35.05 33.67 -35.02 30.62 -34.97 27.57 C-34.98 26.89 -34.98 26.2 -34.98 25.49 C-34.87 18.13 -32.57 11.52 -27.4 6.19 C-19.67 -0.81 -9.77 -0.06 0 0 Z " fill="#267DEF" transform="translate(156.56640625,125.46875)"/>
<path d="M0 0 C1.6 -0 3.21 -0.01 4.81 -0.01 C8.16 -0.02 11.51 -0.01 14.86 0.01 C19.14 0.03 23.41 0.02 27.69 -0 C31 -0.02 34.31 -0.01 37.62 -0 C39.19 -0 40.77 -0 42.34 -0.01 C52.5 -0.06 58.89 0.84 67.43 6.53 C67.43 7.19 67.43 7.85 67.43 8.53 C68.09 8.53 68.75 8.53 69.43 8.53 C71.09 10.39 71.09 10.39 72.93 12.84 C73.54 13.64 74.15 14.44 74.78 15.27 C76.04 16.99 77.25 18.75 78.43 20.53 C80.54 20.97 80.54 20.97 83.02 20.88 C83.99 20.88 84.96 20.88 85.96 20.88 C87.02 20.87 88.08 20.85 89.18 20.84 C90.86 20.84 90.86 20.84 92.57 20.83 C96.29 20.82 100.01 20.79 103.72 20.75 C106.3 20.74 108.88 20.73 111.46 20.73 C118.96 20.7 126.47 20.66 133.97 20.61 C144.15 20.54 154.32 20.49 164.5 20.46 C168.3 20.44 172.09 20.41 175.89 20.38 C178.23 20.37 180.57 20.36 182.91 20.35 C183.96 20.34 185.01 20.33 186.1 20.32 C193.77 20.3 201.06 20.75 207.43 25.53 C207.43 26.19 207.43 26.85 207.43 27.53 C208.09 27.53 208.75 27.53 209.43 27.53 C212.61 32.34 213.89 35.74 214.06 41.52 C214.53 44.07 215.47 44.88 217.43 46.53 C220.95 49.62 222.13 52.06 223.43 56.53 C224.07 57.88 224.73 59.22 225.43 60.53 C223.78 60.53 222.13 60.53 220.43 60.53 C220.1 58.22 219.77 55.91 219.43 53.53 C218.77 53.86 218.11 54.19 217.43 54.53 C217.43 53.87 217.43 53.21 217.43 52.53 C216.77 52.53 216.11 52.53 215.43 52.53 C215.43 51.87 215.43 51.21 215.43 50.53 C209.49 49.79 203.72 49.39 197.73 49.43 C196.51 49.44 196.51 49.44 195.26 49.44 C193.5 49.44 191.74 49.45 189.99 49.46 C187.21 49.47 184.43 49.48 181.65 49.48 C175.77 49.49 169.88 49.51 164 49.53 C157.15 49.55 150.3 49.58 143.46 49.59 C140.72 49.59 137.98 49.61 135.24 49.62 C133.57 49.62 131.9 49.63 130.23 49.63 C129.08 49.64 129.08 49.64 127.91 49.64 C122.66 49.65 122.66 49.65 120.43 48.53 C118.56 48.63 118.56 48.63 116.45 48.96 C111.33 49.6 106.3 49.64 101.14 49.59 C100.19 49.59 99.24 49.59 98.26 49.58 C95.26 49.57 92.25 49.55 89.25 49.53 C85.27 49.5 81.3 49.48 77.33 49.47 C76.42 49.46 75.52 49.45 74.59 49.44 C70.06 49.43 65.91 49.74 61.43 50.53 C61.1 50.2 60.77 49.87 60.43 49.53 C58.77 49.46 57.11 49.45 55.45 49.47 C54.43 49.48 53.41 49.48 52.37 49.49 C50.21 49.52 48.06 49.54 45.91 49.57 C44.89 49.58 43.87 49.59 42.82 49.59 C41.88 49.61 40.95 49.62 39.98 49.63 C37.63 49.54 35.7 49.11 33.43 48.53 C31.43 48.86 29.43 49.2 27.43 49.53 C24.85 49.57 22.28 49.53 19.7 49.47 C17.27 49.43 17.27 49.43 14.43 50.53 C14.1 50.2 13.77 49.87 13.43 49.53 C10.07 49.38 7.65 49.46 4.43 50.53 C1.67 50.44 -1.06 50.3 -3.82 50.09 C-14.03 48.87 -14.03 48.87 -23.57 51.53 C-24.56 51.53 -25.55 51.53 -26.57 51.53 C-26.96 52.42 -27.35 53.31 -27.75 54.22 C-29.64 57.67 -31.8 59.77 -34.57 62.53 C-37.31 67.35 -36.79 72.47 -36.69 77.84 C-36.68 79.24 -36.68 79.24 -36.66 80.67 C-36.64 82.95 -36.61 85.24 -36.57 87.53 C-37.23 87.53 -37.89 87.53 -38.57 87.53 C-38.9 88.52 -39.23 89.51 -39.57 90.53 C-41.84 63.14 -41.84 63.14 -37.02 56.35 C-35.2 52.82 -35.14 49.76 -35.16 45.89 C-35.15 45.16 -35.14 44.43 -35.13 43.68 C-35.09 41.36 -35.08 39.04 -35.07 36.72 C-35.05 33.67 -35.02 30.62 -34.97 27.57 C-34.98 26.89 -34.98 26.2 -34.98 25.49 C-34.87 18.13 -32.57 11.52 -27.4 6.19 C-19.67 -0.81 -9.77 -0.06 0 0 Z " fill="#2785F7" transform="translate(156.56640625,125.46875)"/>
<path d="M0 0 C1.1 -0.01 2.2 -0.02 3.33 -0.03 C5.12 -0.03 5.12 -0.03 6.94 -0.03 C8.17 -0.03 9.4 -0.03 10.67 -0.04 C13.95 -0.05 17.22 -0.04 20.5 -0.04 C23.79 -0.04 27.09 -0.07 30.38 -0.09 C32.92 -0.09 35.46 -0.09 38 -0.09 C39.17 -0.1 40.34 -0.11 41.55 -0.12 C54.74 -0.04 68.83 2.37 79.02 11.38 C88.78 21.84 90.11 31.47 89.91 45.26 C89.49 56.44 84.45 64.85 76.51 72.46 C65.13 81.7 50.54 82.57 36.57 82.9 C35.21 82.94 33.86 82.98 32.5 83.02 C29.21 83.11 25.92 83.2 22.63 83.27 C22.61 84.26 22.59 85.25 22.57 86.27 C22.5 89.94 22.41 93.6 22.32 97.26 C22.28 98.85 22.24 100.44 22.21 102.02 C22.17 104.3 22.11 106.58 22.05 108.86 C22.03 109.93 22.03 109.93 22.01 111.02 C21.86 116.05 21.86 116.05 19.63 118.27 C15.51 118.73 11.35 118.6 7.2 118.59 C6.04 118.6 4.88 118.62 3.69 118.64 C2.58 118.64 1.47 118.64 0.32 118.64 C-1.2 118.64 -1.2 118.64 -2.76 118.65 C-5.83 118.21 -6.51 117.69 -8.37 115.27 C-8.74 113.15 -8.74 113.15 -8.75 110.64 C-8.76 109.69 -8.76 108.73 -8.77 107.75 C-8.77 106.71 -8.76 105.67 -8.75 104.59 C-8.76 103.49 -8.77 102.39 -8.77 101.26 C-8.78 97.62 -8.78 93.98 -8.77 90.33 C-8.77 87.81 -8.77 85.28 -8.77 82.76 C-8.78 77.47 -8.77 72.17 -8.76 66.88 C-8.74 60.76 -8.75 54.63 -8.76 48.51 C-8.78 42.62 -8.78 36.73 -8.77 30.84 C-8.77 28.34 -8.77 25.83 -8.78 23.32 C-8.78 19.82 -8.77 16.33 -8.75 12.83 C-8.76 11.78 -8.77 10.74 -8.77 9.66 C-8.76 8.71 -8.76 7.76 -8.75 6.78 C-8.75 5.96 -8.75 5.13 -8.74 4.28 C-8.62 3.62 -8.5 2.96 -8.37 2.27 C-5.02 0.04 -3.91 0.02 0 0 Z " fill="#E8F1FC" transform="translate(212.36669921875,206.725341796875)"/>
<path d="M0 0 C1.6 -0 3.21 -0.01 4.81 -0.01 C8.16 -0.02 11.51 -0.01 14.86 0.01 C19.14 0.03 23.41 0.02 27.69 -0 C31 -0.02 34.31 -0.01 37.62 -0 C39.19 -0 40.77 -0 42.34 -0.01 C52.5 -0.06 58.89 0.84 67.43 6.53 C67.43 7.19 67.43 7.85 67.43 8.53 C68.09 8.53 68.75 8.53 69.43 8.53 C71.09 10.39 71.09 10.39 72.93 12.84 C73.54 13.64 74.15 14.44 74.78 15.27 C76.04 16.99 77.25 18.75 78.43 20.53 C80.54 20.97 80.54 20.97 83.02 20.88 C83.99 20.88 84.96 20.88 85.96 20.88 C87.02 20.87 88.08 20.85 89.18 20.84 C90.86 20.84 90.86 20.84 92.57 20.83 C96.29 20.82 100.01 20.79 103.72 20.75 C106.3 20.74 108.88 20.73 111.46 20.73 C118.96 20.7 126.47 20.66 133.97 20.61 C144.15 20.54 154.32 20.49 164.5 20.46 C168.3 20.44 172.09 20.41 175.89 20.38 C178.23 20.37 180.57 20.36 182.91 20.35 C183.96 20.34 185.01 20.33 186.1 20.32 C193.77 20.3 201.06 20.75 207.43 25.53 C207.43 26.19 207.43 26.85 207.43 27.53 C208.09 27.53 208.75 27.53 209.43 27.53 C211.54 30.69 211.77 32.04 212.06 35.72 C212.17 37.07 212.17 37.07 212.29 38.45 C212.33 39.14 212.38 39.82 212.43 40.53 C211.77 40.53 211.11 40.53 210.43 40.53 C210.43 41.19 210.43 41.85 210.43 42.53 C199.87 42.53 189.31 42.53 178.43 42.53 C178.43 42.2 178.43 41.87 178.43 41.53 C173.01 40.53 167.57 39.82 162.54 42.56 C160.01 43.73 158.22 43.76 155.45 43.73 C154.51 43.72 153.58 43.71 152.62 43.71 C151.17 43.68 151.17 43.68 149.68 43.66 C148.7 43.65 147.72 43.64 146.7 43.63 C144.28 43.61 141.86 43.57 139.43 43.53 C139.43 42.54 139.43 41.55 139.43 40.53 C132.5 40.53 125.57 40.53 118.43 40.53 C118.43 41.19 118.43 41.85 118.43 42.53 C113.52 43.82 108.66 43.64 103.62 43.59 C102.3 43.59 102.3 43.59 100.94 43.58 C98.77 43.57 96.6 43.55 94.43 43.53 C94.1 42.54 93.77 41.55 93.43 40.53 C92.77 40.53 92.11 40.53 91.43 40.53 C91.43 38.88 91.43 37.23 91.43 35.53 C90.11 35.2 88.79 34.87 87.43 34.53 C87.43 33.87 87.43 33.21 87.43 32.53 C86.77 32.53 86.11 32.53 85.43 32.53 C85.12 31.58 84.81 30.63 84.5 29.66 C83.56 26.67 83.56 26.67 82.43 24.53 C80.11 24.12 77.78 23.79 75.43 23.53 C75.43 22.87 75.43 22.21 75.43 21.53 C74.77 21.2 74.11 20.87 73.43 20.53 C73.43 19.87 73.43 19.21 73.43 18.53 C71.95 18.04 71.95 18.04 70.43 17.53 C70.43 15.88 70.43 14.23 70.43 12.53 C67.89 11.21 65.47 10.19 62.75 9.22 C61.65 8.66 60.56 8.1 59.43 7.53 C58.94 5.06 58.94 5.06 58.43 2.53 C40.94 2.86 23.45 3.19 5.43 3.53 C5.43 3.86 5.43 4.19 5.43 4.53 C3.66 4.57 3.66 4.57 1.85 4.61 C-8.42 4.94 -16.81 5.69 -25.57 11.53 C-26.58 13.19 -27.58 14.86 -28.57 16.53 C-29.23 16.86 -29.89 17.19 -30.57 17.53 C-34.16 27.51 -32.7 41.04 -32.57 51.53 C-32.07 51.19 -31.57 50.86 -31.06 50.51 C-30.38 50.06 -29.7 49.62 -29 49.16 C-28.34 48.72 -27.68 48.27 -27 47.82 C-20.81 44.54 -14.93 44.23 -8.07 44.23 C-7.13 44.22 -6.2 44.22 -5.23 44.21 C-2.1 44.18 1.03 44.17 4.15 44.16 C6.4 44.15 8.65 44.14 10.9 44.12 C16.99 44.08 23.09 44.05 29.19 44.03 C34.28 44.01 39.37 43.98 44.46 43.95 C57.15 43.88 69.84 43.83 82.53 43.78 C93.55 43.74 104.57 43.68 115.58 43.61 C126.9 43.54 138.22 43.48 149.55 43.44 C155.9 43.41 162.25 43.38 168.6 43.34 C174.57 43.3 180.55 43.27 186.52 43.26 C188.71 43.25 190.9 43.24 193.09 43.22 C196.08 43.2 199.07 43.2 202.07 43.19 C202.93 43.18 203.8 43.17 204.7 43.16 C210.79 43.19 214.85 44.45 219.68 48.34 C221.78 50.96 222.5 53.33 223.43 56.53 C224.07 57.88 224.73 59.22 225.43 60.53 C223.78 60.53 222.13 60.53 220.43 60.53 C220.1 58.22 219.77 55.91 219.43 53.53 C218.77 53.86 218.11 54.19 217.43 54.53 C217.43 53.87 217.43 53.21 217.43 52.53 C216.77 52.53 216.11 52.53 215.43 52.53 C215.43 51.87 215.43 51.21 215.43 50.53 C209.49 49.79 203.72 49.39 197.73 49.43 C196.51 49.44 196.51 49.44 195.26 49.44 C193.5 49.44 191.74 49.45 189.99 49.46 C187.21 49.47 184.43 49.48 181.65 49.48 C175.77 49.49 169.88 49.51 164 49.53 C157.15 49.55 150.3 49.58 143.46 49.59 C140.72 49.59 137.98 49.61 135.24 49.62 C133.57 49.62 131.9 49.63 130.23 49.63 C129.08 49.64 129.08 49.64 127.91 49.64 C122.66 49.65 122.66 49.65 120.43 48.53 C118.56 48.63 118.56 48.63 116.45 48.96 C111.33 49.6 106.3 49.64 101.14 49.59 C100.19 49.59 99.24 49.59 98.26 49.58 C95.26 49.57 92.25 49.55 89.25 49.53 C85.27 49.5 81.3 49.48 77.33 49.47 C76.42 49.46 75.52 49.45 74.59 49.44 C70.06 49.43 65.91 49.74 61.43 50.53 C61.1 50.2 60.77 49.87 60.43 49.53 C58.77 49.46 57.11 49.45 55.45 49.47 C54.43 49.48 53.41 49.48 52.37 49.49 C50.21 49.52 48.06 49.54 45.91 49.57 C44.89 49.58 43.87 49.59 42.82 49.59 C41.88 49.61 40.95 49.62 39.98 49.63 C37.63 49.54 35.7 49.11 33.43 48.53 C31.43 48.86 29.43 49.2 27.43 49.53 C24.85 49.57 22.28 49.53 19.7 49.47 C17.27 49.43 17.27 49.43 14.43 50.53 C14.1 50.2 13.77 49.87 13.43 49.53 C10.07 49.38 7.65 49.46 4.43 50.53 C1.67 50.44 -1.06 50.3 -3.82 50.09 C-14.03 48.87 -14.03 48.87 -23.57 51.53 C-24.56 51.53 -25.55 51.53 -26.57 51.53 C-26.96 52.42 -27.35 53.31 -27.75 54.22 C-29.64 57.67 -31.8 59.77 -34.57 62.53 C-37.31 67.35 -36.79 72.47 -36.69 77.84 C-36.68 79.24 -36.68 79.24 -36.66 80.67 C-36.64 82.95 -36.61 85.24 -36.57 87.53 C-37.23 87.53 -37.89 87.53 -38.57 87.53 C-38.9 88.52 -39.23 89.51 -39.57 90.53 C-41.84 63.14 -41.84 63.14 -37.02 56.35 C-35.2 52.82 -35.14 49.76 -35.16 45.89 C-35.15 45.16 -35.14 44.43 -35.13 43.68 C-35.09 41.36 -35.08 39.04 -35.07 36.72 C-35.05 33.67 -35.02 30.62 -34.97 27.57 C-34.98 26.89 -34.98 26.2 -34.98 25.49 C-34.87 18.13 -32.57 11.52 -27.4 6.19 C-19.67 -0.81 -9.77 -0.06 0 0 Z " fill="#4192F4" transform="translate(156.56640625,125.46875)"/>
<path d="M0 0 C1.13 -0.01 2.27 -0.03 3.44 -0.04 C5.39 -0.07 7.35 -0.1 9.3 -0.16 C15.4 -0.22 19.38 1.02 24.22 4.93 C26.31 7.54 27.04 9.91 27.97 13.11 C28.61 14.46 29.26 15.8 29.97 17.11 C28.32 17.11 26.67 17.11 24.97 17.11 C24.64 14.8 24.31 12.49 23.97 10.11 C23.31 10.44 22.65 10.77 21.97 11.11 C21.97 10.45 21.97 9.79 21.97 9.11 C21.31 9.11 20.65 9.11 19.97 9.11 C19.97 8.45 19.97 7.79 19.97 7.11 C14.03 6.37 8.26 5.98 2.27 6.02 C1.04 6.02 1.04 6.02 -0.21 6.02 C-1.96 6.02 -3.72 6.03 -5.48 6.04 C-8.25 6.05 -11.03 6.06 -13.81 6.06 C-19.7 6.07 -25.58 6.09 -31.47 6.11 C-38.31 6.14 -45.16 6.16 -52.01 6.17 C-54.75 6.18 -57.49 6.19 -60.23 6.2 C-61.9 6.21 -63.56 6.21 -65.23 6.21 C-66.38 6.22 -66.38 6.22 -67.55 6.23 C-72.8 6.23 -72.8 6.23 -75.03 5.11 C-76.9 5.21 -76.9 5.21 -79.01 5.55 C-84.14 6.19 -89.16 6.22 -94.32 6.18 C-95.75 6.17 -95.75 6.17 -97.2 6.17 C-100.21 6.15 -103.21 6.13 -106.22 6.11 C-110.19 6.09 -114.16 6.07 -118.13 6.05 C-119.04 6.04 -119.94 6.04 -120.87 6.03 C-125.4 6.01 -129.56 6.32 -134.03 7.11 C-134.52 6.62 -134.52 6.62 -135.03 6.11 C-136.69 6.04 -138.35 6.03 -140.02 6.05 C-141.03 6.06 -142.05 6.07 -143.1 6.08 C-145.25 6.1 -147.4 6.13 -149.55 6.15 C-150.57 6.16 -151.59 6.17 -152.64 6.18 C-153.58 6.19 -154.51 6.2 -155.48 6.21 C-157.83 6.12 -159.76 5.7 -162.03 5.11 C-164.03 5.45 -166.03 5.78 -168.03 6.11 C-170.61 6.15 -173.18 6.12 -175.76 6.05 C-178.2 6.01 -178.2 6.01 -181.03 7.11 C-181.52 6.62 -181.52 6.62 -182.03 6.11 C-185.4 5.97 -187.81 6.04 -191.03 7.11 C-193.79 7.03 -196.52 6.88 -199.28 6.68 C-209.49 5.45 -209.49 5.45 -219.03 8.11 C-220.02 8.11 -221.01 8.11 -222.03 8.11 C-222.42 9 -222.81 9.89 -223.22 10.8 C-225.1 14.25 -227.27 16.35 -230.03 19.11 C-232.77 23.93 -232.25 29.06 -232.15 34.43 C-232.14 35.36 -232.14 36.29 -232.13 37.25 C-232.1 39.54 -232.07 41.83 -232.03 44.11 C-232.69 44.11 -233.35 44.11 -234.03 44.11 C-234.09 40.39 -234.12 36.66 -234.15 32.93 C-234.17 31.87 -234.19 30.82 -234.2 29.73 C-234.21 28.71 -234.22 27.69 -234.22 26.63 C-234.23 25.7 -234.25 24.76 -234.26 23.79 C-234.01 20.9 -233.23 18.74 -232.03 16.11 C-231.37 16.11 -230.71 16.11 -230.03 16.11 C-230.05 15.08 -230.07 14.05 -230.09 12.99 C-229.71 10.27 -229.22 9.3 -227.2 7.38 C-220.01 2.43 -213.18 0.81 -204.57 0.84 C-203.74 0.83 -202.91 0.82 -202.06 0.82 C-199.31 0.8 -196.55 0.8 -193.8 0.8 C-191.81 0.79 -189.83 0.78 -187.85 0.77 C-182.47 0.74 -177.09 0.72 -171.71 0.71 C-166.06 0.69 -160.41 0.67 -154.76 0.64 C-144.03 0.59 -133.31 0.56 -122.58 0.53 C-110.46 0.49 -98.35 0.44 -86.24 0.39 C-71.43 0.33 -56.63 0.27 -41.82 0.22 C-40.25 0.21 -40.25 0.21 -38.65 0.2 C-33.64 0.19 -28.63 0.17 -23.61 0.16 C-21.76 0.16 -19.91 0.16 -18.06 0.15 C-16.74 0.15 -16.74 0.15 -15.4 0.15 C-10.27 0.13 -5.13 0.08 0 0 Z " fill="#4FAEF9" transform="translate(352.0288391113281,168.88555908203125)"/>
<path d="M0 0 C3.81 -0.12 7.62 -0.19 11.44 -0.25 C12.51 -0.28 13.58 -0.32 14.68 -0.35 C22.89 -0.45 29.52 0.61 35.56 6.5 C37.69 11.69 37.76 16.47 37 22 C34.42 27.24 31.5 30.1 26.04 32.07 C21.12 33.43 16.19 33.25 11.12 33.19 C10.16 33.19 9.2 33.19 8.21 33.19 C1.14 33.14 1.14 33.14 0 32 C-0.09 29.62 -0.12 27.28 -0.1 24.9 C-0.1 24.19 -0.09 23.48 -0.09 22.75 C-0.09 20.48 -0.08 18.21 -0.06 15.94 C-0.06 14.4 -0.05 12.86 -0.05 11.33 C-0.04 7.55 -0.02 3.78 0 0 Z " fill="#1358CA" transform="translate(234,232)"/>
<path d="M0 0 C5.18 7.77 0.56 24.95 -0.38 33.94 C-0.55 35.64 -0.55 35.64 -0.72 37.38 C-2.08 49.79 -4.52 59.15 -13.95 67.79 C-20.71 73.19 -27.52 75.46 -36.14 75.39 C-36.92 75.39 -37.7 75.4 -38.5 75.4 C-41.09 75.42 -43.68 75.41 -46.27 75.4 C-48.13 75.41 -50 75.42 -51.86 75.42 C-56.91 75.44 -61.97 75.44 -67.02 75.44 C-71.24 75.43 -75.47 75.44 -79.69 75.44 C-89.66 75.46 -99.63 75.46 -109.6 75.45 C-119.87 75.43 -130.14 75.45 -140.41 75.48 C-149.24 75.5 -158.07 75.5 -166.91 75.5 C-172.17 75.5 -177.44 75.5 -182.71 75.51 C-187.67 75.53 -192.62 75.53 -197.58 75.51 C-199.39 75.5 -201.2 75.51 -203.02 75.52 C-212.73 75.57 -221.06 75.38 -230 71 C-230 70.34 -230 69.68 -230 69 C-230.66 68.67 -231.32 68.34 -232 68 C-226.3 68.59 -221.19 69.4 -216 72 C-213.69 72.09 -211.37 72.12 -209.06 72.11 C-208.34 72.11 -207.62 72.11 -206.87 72.11 C-204.44 72.11 -202.01 72.11 -199.57 72.1 C-197.83 72.1 -196.09 72.09 -194.35 72.09 C-190.6 72.09 -186.85 72.08 -183.1 72.08 C-177.17 72.06 -171.24 72.06 -165.32 72.05 C-151.66 72.04 -138.01 72.02 -124.35 71.99 C-111.84 71.97 -99.33 71.96 -86.82 71.95 C-80.92 71.94 -75.03 71.93 -69.13 71.92 C-65.47 71.91 -61.8 71.91 -58.14 71.91 C-56.43 71.9 -54.73 71.9 -53.03 71.89 C-50.71 71.89 -48.39 71.89 -46.07 71.89 C-44.12 71.88 -44.12 71.88 -42.13 71.88 C-39 72 -39 72 -36 73 C-36 72.34 -36 71.68 -36 71 C-30.72 70.34 -25.44 69.68 -20 69 C-20 68.01 -20 67.02 -20 66 C-19.45 65.83 -18.89 65.66 -18.32 65.48 C-13.75 64.09 -13.75 64.09 -10.5 60.81 C-10.34 60.21 -10.17 59.62 -10 59 C-9.34 59 -8.68 59 -8 59 C-7.86 58.13 -7.71 57.27 -7.56 56.38 C-7.04 53.25 -6.52 50.12 -6 47 C-5.34 47 -4.68 47 -4 47 C-4.01 45.84 -4.02 44.68 -4.04 43.49 C-4.04 41.95 -4.05 40.41 -4.06 38.88 C-4.07 38.11 -4.08 37.35 -4.09 36.57 C-4.11 32.24 -3.73 28.28 -3 24 C-2.93 21.36 -2.9 18.76 -2.94 16.12 C-2.94 15.09 -2.94 15.09 -2.95 14.04 C-2.96 12.36 -2.98 10.68 -3 9 C-2.01 9 -1.02 9 0 9 C0 6.03 0 3.06 0 0 Z " fill="#0D3384" transform="translate(373,282)"/>
<path d="M0 0 C0.33 0 0.66 0 1 0 C1.2 1.56 1.38 3.12 1.56 4.69 C1.72 5.99 1.72 5.99 1.88 7.32 C2.12 12.74 0.22 17.68 -1.38 22.79 C-2.09 24.94 -2.09 24.94 -2 27 C-0.51 27.5 -0.51 27.5 1 28 C0.34 28.33 -0.32 28.66 -1 29 C-1.99 28.34 -2.98 27.68 -4 27 C-6.62 30.06 -7 30.73 -7 35 C-7.76 35.27 -8.53 35.54 -9.31 35.81 C-13.49 37.66 -15.15 39.88 -17 44 C-17.97 43.75 -18.94 43.5 -19.94 43.25 C-24.27 42.59 -27.19 44.13 -30.98 46.09 C-33 47 -33 47 -36 47 C-36.64 47.34 -37.28 47.68 -37.94 48.02 C-40.35 49.16 -41.41 49.07 -44 48.62 C-50.48 47.72 -57.73 46.91 -64 49 C-64 49.99 -64 50.98 -64 52 C-64.66 52.99 -65.32 53.98 -66 55 C-67.08 60.76 -66.92 65.73 -66.06 71.5 C-65.96 72.23 -65.86 72.95 -65.76 73.7 C-65.52 75.47 -65.26 77.24 -65 79 C-64.34 79 -63.68 79 -63 79 C-63 80.65 -63 82.3 -63 84 C-67.77 84.05 -72.54 84.09 -77.31 84.11 C-78.93 84.12 -80.55 84.13 -82.17 84.15 C-84.51 84.18 -86.84 84.19 -89.17 84.2 C-90.26 84.21 -90.26 84.21 -91.36 84.23 C-98.02 84.23 -98.02 84.23 -101 82 C-101.79 79.19 -102.28 77.04 -101.52 74.19 C-100.85 71.36 -100.89 68.75 -100.9 65.84 C-100.91 64.6 -100.91 63.35 -100.91 62.07 C-100.92 61.41 -100.92 60.74 -100.92 60.06 C-100.94 57.98 -100.94 55.9 -100.95 53.82 C-100.96 48.65 -100.99 43.48 -101.01 38.31 C-101.03 33.95 -101.05 29.58 -101.06 25.21 C-101.06 23.16 -101.07 21.11 -101.09 19.07 C-101.09 17.82 -101.09 16.57 -101.1 15.29 C-101.1 14.19 -101.11 13.1 -101.11 11.97 C-101.01 9.19 -100.63 6.7 -100 4 C-99.67 4 -99.34 4 -99 4 C-98.99 4.92 -98.98 5.85 -98.98 6.8 C-98.9 15.48 -98.81 24.16 -98.71 32.84 C-98.66 37.31 -98.62 41.77 -98.58 46.23 C-98.54 50.54 -98.49 54.84 -98.44 59.15 C-98.42 60.79 -98.41 62.44 -98.4 64.08 C-98.38 66.38 -98.35 68.68 -98.32 70.98 C-98.31 72.29 -98.29 73.6 -98.28 74.95 C-98.32 78.11 -98.32 78.11 -96 80 C-93.4 80.29 -93.4 80.29 -90.37 80.23 C-89.25 80.23 -88.14 80.23 -86.99 80.22 C-85.82 80.21 -84.64 80.2 -83.44 80.19 C-82.26 80.19 -81.09 80.19 -79.88 80.19 C-74.58 80.67 -74.58 80.67 -70 79 C-69.85 76.57 -69.77 74.16 -69.72 71.72 C-69.7 70.99 -69.68 70.26 -69.66 69.51 C-69.6 67.17 -69.55 64.84 -69.5 62.5 C-69.43 59.43 -69.36 56.35 -69.28 53.28 C-69.27 52.57 -69.25 51.85 -69.24 51.12 C-69.11 46.11 -69.11 46.11 -68 45 C-66.03 44.89 -64.06 44.84 -62.09 44.82 C-35.12 44.75 -35.12 44.75 -11.98 32.15 C-3.53 23.19 -0.92 11.98 0 0 Z " fill="#215DC1" transform="translate(303,244)"/>
<path d="M0 0 C2.57 -0 5.14 -0.01 7.71 -0.01 C11.81 -0.02 15.91 -0.02 20.01 -0.01 C21.54 -0.01 23.07 -0.01 24.61 -0.01 C26.73 -0.02 28.84 -0.01 30.96 -0.01 C32.76 -0 32.76 -0 34.59 -0 C40.93 0.24 40.93 0.24 43.88 1.12 C45.26 3.69 45.26 3.69 45.88 6.12 C45.21 6.05 44.53 5.98 43.84 5.9 C33.66 4.96 23.53 5.04 13.32 5.11 C10.06 5.13 6.79 5.15 3.53 5.16 C-5.74 5.19 -15.01 5.23 -24.28 5.29 C-29.97 5.33 -35.67 5.36 -41.36 5.37 C-43.52 5.38 -45.68 5.39 -47.83 5.41 C-69.44 5.6 -69.44 5.6 -78.12 2.12 C-78.12 1.79 -78.12 1.46 -78.12 1.12 C-52.08 0.19 -26.05 0.01 0 0 Z " fill="#629EDA" transform="translate(313.11974716186523,145.87661743164063)"/>
<path d="M0 0 C1.6 -0 3.21 -0.01 4.81 -0.01 C8.16 -0.02 11.51 -0.01 14.86 0.01 C19.14 0.03 23.41 0.02 27.69 -0 C31 -0.02 34.31 -0.01 37.62 -0 C39.19 -0 40.77 -0 42.34 -0.01 C52.5 -0.06 58.89 0.84 67.43 6.53 C67.43 7.19 67.43 7.85 67.43 8.53 C68.09 8.53 68.75 8.53 69.43 8.53 C71.16 10.39 71.16 10.39 73.06 12.84 C73.69 13.64 74.32 14.44 74.97 15.27 C76.43 17.53 76.43 17.53 76.43 20.53 C75.44 20.53 74.45 20.53 73.43 20.53 C73.43 19.87 73.43 19.21 73.43 18.53 C71.95 18.04 71.95 18.04 70.43 17.53 C70.43 15.88 70.43 14.23 70.43 12.53 C67.89 11.21 65.47 10.19 62.75 9.22 C61.65 8.66 60.56 8.1 59.43 7.53 C58.94 5.06 58.94 5.06 58.43 2.53 C40.94 2.86 23.45 3.19 5.43 3.53 C5.43 3.86 5.43 4.19 5.43 4.53 C3.66 4.57 3.66 4.57 1.85 4.61 C-8.42 4.94 -16.81 5.69 -25.57 11.53 C-26.58 13.19 -27.58 14.86 -28.57 16.53 C-29.23 16.86 -29.89 17.19 -30.57 17.53 C-31.92 21.18 -31.87 25.12 -32.07 28.96 C-32.11 29.68 -32.15 30.39 -32.19 31.13 C-32.32 33.41 -32.44 35.69 -32.57 37.97 C-32.73 40.97 -32.9 43.97 -33.07 46.96 C-33.1 47.65 -33.14 48.33 -33.17 49.04 C-33.38 52.6 -33.59 56.08 -34.57 59.53 C-35.56 60.03 -35.56 60.03 -36.57 60.53 C-37.75 63.82 -37.76 67.14 -37.88 70.61 C-37.92 71.77 -37.97 72.93 -38.01 74.12 C-38.05 75.33 -38.09 76.54 -38.13 77.78 C-38.17 79 -38.22 80.23 -38.26 81.48 C-38.37 84.5 -38.47 87.52 -38.57 90.53 C-38.9 90.53 -39.23 90.53 -39.57 90.53 C-41.84 63.14 -41.84 63.14 -37.02 56.35 C-35.2 52.82 -35.14 49.76 -35.16 45.89 C-35.15 45.16 -35.14 44.43 -35.13 43.68 C-35.09 41.36 -35.08 39.04 -35.07 36.72 C-35.05 33.67 -35.02 30.62 -34.97 27.57 C-34.98 26.89 -34.98 26.2 -34.98 25.49 C-34.87 18.13 -32.57 11.52 -27.4 6.19 C-19.67 -0.81 -9.77 -0.06 0 0 Z " fill="#4790C4" transform="translate(156.56640625,125.46875)"/>
<path d="M0 0 C0.82 -0 1.64 -0 2.49 -0 C3.38 -0 4.28 0 5.2 0.01 C6.62 0.01 6.62 0.01 8.07 0.01 C11.2 0.01 14.34 0.01 17.47 0.02 C19.64 0.02 21.81 0.03 23.98 0.03 C29.7 0.03 35.41 0.04 41.13 0.05 C46.96 0.06 52.79 0.07 58.62 0.07 C70.07 0.08 81.51 0.1 92.96 0.12 C92.96 0.45 92.96 0.78 92.96 1.12 C84.94 1.83 77.01 2.27 68.96 2.12 C68.96 2.78 68.96 3.44 68.96 4.12 C66.71 4.15 64.46 4.17 62.21 4.18 C60.95 4.19 59.7 4.21 58.41 4.22 C55.64 4.14 53.58 3.84 50.96 3.12 C48.96 3.45 46.96 3.79 44.96 4.12 C42.38 4.16 39.81 4.12 37.23 4.06 C34.79 4.02 34.79 4.02 31.96 5.12 C31.46 4.63 31.46 4.63 30.96 4.12 C27.59 3.97 25.17 4.05 21.96 5.12 C19.19 5.03 16.46 4.89 13.71 4.68 C3.5 3.46 3.5 3.46 -6.04 6.12 C-7.03 6.12 -8.02 6.12 -9.04 6.12 C-9.44 7.01 -9.83 7.89 -10.23 8.81 C-12.12 12.26 -14.28 14.36 -17.04 17.12 C-19.79 21.94 -19.27 27.06 -19.17 32.43 C-19.16 33.36 -19.15 34.3 -19.14 35.26 C-19.12 37.54 -19.08 39.83 -19.04 42.12 C-19.7 42.12 -20.36 42.12 -21.04 42.12 C-21.1 38.39 -21.14 34.66 -21.17 30.93 C-21.19 29.88 -21.2 28.82 -21.22 27.74 C-21.23 26.71 -21.23 25.69 -21.24 24.64 C-21.25 23.7 -21.26 22.77 -21.27 21.8 C-21.02 18.9 -20.25 16.75 -19.04 14.12 C-18.38 14.12 -17.72 14.12 -17.04 14.12 C-17.06 13.09 -17.08 12.06 -17.11 11 C-16.73 8.18 -16.23 7.29 -14.08 5.35 C-9.48 2.28 -5.64 -0.01 0 0 Z " fill="#65C3FD" transform="translate(139.0432586669922,170.87974548339844)"/>
<path d="M0 0 C0.99 0.5 0.99 0.5 2 1 C2.34 3 2.34 3 2.5 5.44 C2.65 9.17 2.65 9.17 5 12 C4.37 11.84 3.74 11.67 3.09 11.51 C-1.1 10.82 -5.2 10.87 -9.45 10.88 C-10.88 10.88 -10.88 10.88 -12.34 10.88 C-15.55 10.88 -18.75 10.88 -21.96 10.89 C-24.25 10.89 -26.55 10.89 -28.85 10.89 C-35.08 10.89 -41.32 10.89 -47.56 10.9 C-54.07 10.9 -60.59 10.91 -67.11 10.91 C-78.05 10.91 -88.99 10.92 -99.93 10.92 C-111.19 10.93 -122.46 10.94 -133.73 10.95 C-134.42 10.95 -135.12 10.95 -135.83 10.95 C-139.32 10.95 -142.8 10.95 -146.29 10.95 C-175.19 10.96 -204.1 10.98 -233 11 C-233 10.67 -233 10.34 -233 10 C-225.97 8.91 -219.08 8.87 -211.97 8.89 C-210.69 8.89 -209.4 8.89 -208.07 8.89 C-204.56 8.89 -201.05 8.89 -197.53 8.9 C-193.86 8.9 -190.18 8.91 -186.5 8.91 C-179.54 8.91 -172.59 8.92 -165.63 8.93 C-157.71 8.94 -149.79 8.94 -141.87 8.95 C-125.58 8.96 -109.29 8.98 -93 9 C-93 8.34 -93 7.68 -93 7 C-86.07 7 -79.14 7 -72 7 C-72 7.99 -72 8.98 -72 10 C-68.21 9.89 -64.42 9.76 -60.62 9.62 C-59.54 9.59 -58.46 9.56 -57.35 9.53 C-56.32 9.49 -55.29 9.45 -54.23 9.41 C-52.8 9.37 -52.8 9.37 -51.34 9.32 C-48.81 9.21 -48.81 9.21 -47 7 C-41.64 6 -37.34 6 -32 7 C-32 7.33 -32 7.66 -32 8 C-21.77 8.33 -11.54 8.66 -1 9 C-1 8.34 -1 7.68 -1 7 C-0.34 7 0.32 7 1 7 C0.67 4.69 0.34 2.38 0 0 Z " fill="#1F72DB" transform="translate(368,159)"/>
<path d="M0 0 C24.09 0 48.18 0 73 0 C73.5 2.47 73.5 2.47 74 5 C75.32 5.33 76.64 5.66 78 6 C77.67 6.66 77.34 7.32 77 8 C76.21 7.72 75.42 7.43 74.61 7.14 C66.59 4.44 59.62 3.44 51.2 3.57 C49.46 3.58 49.46 3.58 47.68 3.58 C44.02 3.6 40.35 3.64 36.69 3.69 C34.21 3.7 31.74 3.71 29.26 3.72 C26.89 3.73 24.51 3.75 22.14 3.76 C20.49 3.77 20.49 3.77 18.81 3.78 C8.42 3.52 8.42 3.52 -1 7 C-2.44 7.17 -2.44 7.17 -3.92 7.34 C-8.78 8.38 -10.49 11.46 -13.36 15.31 C-16.64 20.69 -16.01 25.66 -15.9 31.84 C-16.09 35.97 -17.08 39.98 -18 44 C-18.33 44 -18.66 44 -19 44 C-18.89 39.94 -18.76 35.87 -18.62 31.81 C-18.59 30.66 -18.56 29.51 -18.53 28.33 C-18.49 27.21 -18.45 26.1 -18.41 24.96 C-18.38 23.94 -18.35 22.91 -18.32 21.86 C-17.98 18.86 -17.38 16.68 -16 14 C-15.01 13.34 -14.02 12.68 -13 12 C-12.71 11.35 -12.42 10.71 -12.12 10.04 C-10.6 7.27 -8.9 6.63 -6.06 5.31 C-5.19 4.9 -4.31 4.48 -3.41 4.05 C-1 3 -1 3 2 2 C1.34 1.34 0.68 0.68 0 0 Z " fill="#4CABFA" transform="translate(142,128)"/>
<path d="M0 0 C5.7 0.59 10.81 1.4 16 4 C17.98 4.09 19.96 4.12 21.94 4.12 C23.83 4.12 23.83 4.12 25.77 4.12 C27.18 4.12 28.59 4.12 30 4.11 C31.47 4.11 32.95 4.11 34.43 4.11 C38.45 4.11 42.47 4.11 46.49 4.1 C50.69 4.1 54.89 4.09 59.09 4.09 C67.04 4.09 75 4.08 82.95 4.07 C92.01 4.06 101.06 4.06 110.11 4.05 C128.74 4.04 147.37 4.02 166 4 C166 4.33 166 4.66 166 5 C132.91 5.76 99.83 6.21 66.73 6.24 C60.85 6.25 54.97 6.27 49.09 6.3 C44.47 6.32 39.86 6.32 35.25 6.32 C33.08 6.33 30.91 6.33 28.73 6.35 C25.73 6.36 22.74 6.36 19.74 6.36 C18.86 6.37 17.99 6.37 17.09 6.38 C11.41 6.35 7.21 5.27 2 3 C2 2.34 2 1.68 2 1 C1.34 0.67 0.68 0.34 0 0 Z " fill="#1553CA" transform="translate(141,350)"/>
<path d="M0 0 C0.33 0 0.66 0 1 0 C1.01 0.92 1.02 1.85 1.02 2.8 C1.1 11.48 1.19 20.16 1.29 28.84 C1.34 33.31 1.38 37.77 1.42 42.23 C1.46 46.54 1.51 50.84 1.56 55.15 C1.58 56.79 1.59 58.44 1.6 60.08 C1.62 62.38 1.65 64.68 1.68 66.98 C1.69 68.29 1.71 69.6 1.72 70.95 C1.68 74.11 1.68 74.11 4 76 C6.6 76.29 6.6 76.29 9.63 76.23 C10.75 76.23 11.86 76.23 13.01 76.22 C14.18 76.21 15.36 76.2 16.56 76.19 C17.74 76.19 18.91 76.19 20.12 76.19 C25.42 76.67 25.42 76.67 30 75 C30.16 72.86 30.25 70.71 30.32 68.56 C30.38 66.6 30.38 66.6 30.44 64.6 C30.48 63.21 30.52 61.83 30.56 60.44 C30.61 59.04 30.65 57.65 30.69 56.26 C30.8 52.84 30.9 49.42 31 46 C31.33 46 31.66 46 32 46 C32.05 46.75 32.1 47.51 32.15 48.28 C32.78 57.24 33.82 66.1 35 75 C35.66 75 36.32 75 37 75 C37 76.65 37 78.3 37 80 C32.23 80.05 27.46 80.09 22.69 80.11 C21.07 80.12 19.45 80.13 17.83 80.15 C15.49 80.18 13.16 80.19 10.83 80.2 C9.74 80.21 9.74 80.21 8.64 80.23 C1.98 80.23 1.98 80.23 -1 78 C-1.79 75.19 -2.28 73.04 -1.52 70.19 C-0.85 67.36 -0.89 64.75 -0.9 61.84 C-0.91 60.6 -0.91 59.35 -0.91 58.07 C-0.92 57.41 -0.92 56.74 -0.92 56.06 C-0.94 53.98 -0.94 51.9 -0.95 49.82 C-0.96 44.65 -0.99 39.48 -1.01 34.31 C-1.03 29.95 -1.05 25.58 -1.06 21.21 C-1.06 19.16 -1.07 17.11 -1.09 15.07 C-1.09 13.82 -1.09 12.57 -1.1 11.29 C-1.1 10.19 -1.11 9.1 -1.11 7.97 C-1.01 5.19 -0.63 2.7 0 0 Z " fill="#1E5CC2" transform="translate(203,248)"/>
<path d="M0 0 C1.04 -0.01 2.07 -0.01 3.14 -0.02 C4.25 -0.01 5.36 -0 6.51 0.01 C7.66 0.01 8.82 0.01 10.02 0.01 C12.47 0.01 14.92 0.02 17.38 0.04 C21.09 0.06 24.8 0.06 28.52 0.05 C56.5 0.08 56.5 0.08 68.7 4.37 C68.7 5.03 68.7 5.69 68.7 6.37 C69.97 6.71 69.97 6.71 71.26 7.06 C77.83 9.57 82.69 13.61 86.7 19.37 C86.2 20.86 86.2 20.86 85.7 22.37 C85.2 21.69 84.71 21.01 84.2 20.31 C75.3 9.85 65.19 5.18 51.7 3.37 C47.2 3.11 42.73 3.11 38.22 3.14 C36.98 3.14 35.74 3.14 34.45 3.14 C31.84 3.15 29.23 3.15 26.62 3.17 C22.62 3.18 18.61 3.19 14.6 3.19 C12.06 3.19 9.52 3.2 6.97 3.2 C5.77 3.21 4.57 3.21 3.33 3.21 C1.67 3.22 1.67 3.22 -0.02 3.23 C-0.99 3.23 -1.97 3.23 -2.97 3.24 C-5.33 3.22 -5.33 3.22 -7.3 4.37 C-7.63 17.24 -7.96 30.11 -8.3 43.37 C-8.63 43.37 -8.96 43.37 -9.3 43.37 C-9.63 30.17 -9.96 16.97 -10.3 3.37 C-4.68 -0 -4.68 -0 0 0 Z " fill="#367ACF" transform="translate(212.302490234375,204.627685546875)"/>
<path d="M0 0 C3.81 -0.12 7.62 -0.19 11.44 -0.25 C12.51 -0.28 13.58 -0.32 14.68 -0.35 C22.89 -0.45 29.52 0.61 35.56 6.5 C37.82 12.01 38.42 18.38 36.2 24.04 C34.48 26.74 32.67 28.22 30 30 C30.25 28.52 30.53 27.04 30.81 25.56 C30.96 24.74 31.11 23.92 31.27 23.07 C31.63 22.04 31.63 22.04 32 21 C32.99 20.67 33.98 20.34 35 20 C34.91 12.9 34.91 12.9 32.44 6.44 C29.04 4.43 25.87 3.77 22 3 C22 2.34 22 1.68 22 1 C16.72 1 11.44 1 6 1 C5.34 3.31 4.68 5.62 4 8 C3.01 8.5 3.01 8.5 2 9 C1.67 16.26 1.34 23.52 1 31 C8.92 31 16.84 31 25 31 C21.76 33.16 20.88 33.25 17.15 33.23 C15.75 33.23 15.75 33.23 14.32 33.22 C12.86 33.21 12.86 33.21 11.38 33.19 C10.4 33.19 9.42 33.19 8.41 33.19 C1.14 33.14 1.14 33.14 0 32 C-0.09 29.62 -0.12 27.28 -0.1 24.9 C-0.1 24.19 -0.09 23.48 -0.09 22.75 C-0.09 20.48 -0.08 18.21 -0.06 15.94 C-0.06 14.4 -0.05 12.86 -0.05 11.33 C-0.04 7.55 -0.02 3.78 0 0 Z " fill="#2558B0" transform="translate(234,232)"/>
<path d="M0 0 C2.08 0 4.17 0 6.25 0 C11.67 0.01 17.1 0.02 22.52 0.03 C28.08 0.04 33.64 0.04 39.19 0.05 C50.05 0.06 60.92 0.08 71.78 0.1 C71.78 0.43 71.78 0.76 71.78 1.1 C61.45 1.81 51.15 2.29 40.8 2.45 C39.41 2.47 38.02 2.5 36.63 2.52 C33.74 2.57 30.85 2.61 27.97 2.66 C25.07 2.7 22.18 2.75 19.28 2.8 C-0.26 3.16 -19.69 3 -39.22 2.1 C-39.22 1.77 -39.22 1.44 -39.22 1.1 C-26.14 0.14 -13.12 -0.04 0 0 Z " fill="#61BDFE" transform="translate(272.22265625,169.90234375)"/>
<path d="M0 0 C3.87 -0.09 7.75 -0.14 11.62 -0.19 C13.27 -0.23 13.27 -0.23 14.94 -0.26 C20.8 -0.32 25.06 -0.3 30 3 C30 3.66 30 4.32 30 5 C29.37 4.84 28.73 4.67 28.08 4.51 C23.95 3.83 19.93 3.88 15.76 3.9 C14.88 3.9 14 3.91 13.09 3.91 C10.29 3.91 7.49 3.92 4.69 3.94 C2.78 3.94 0.88 3.95 -1.03 3.95 C-5.68 3.96 -10.34 3.98 -15 4 C-15 3.67 -15 3.34 -15 3 C-9.92 2.15 -5.15 1.91 0 2 C0 1.34 0 0.68 0 0 Z " fill="#51B2FA" transform="translate(344,169)"/>
<path d="M0 0 C0.5 0.99 0.5 0.99 1 2 C2.14 1.94 2.14 1.94 3.31 1.88 C6 2 6 2 9 4 C9.73 5.98 10.39 7.98 11 10 C11.64 11.35 12.29 12.69 13 14 C11.35 14 9.7 14 8 14 C7.5 10.53 7.5 10.53 7 7 C6.34 7.33 5.68 7.66 5 8 C5 7.34 5 6.68 5 6 C4.34 6 3.68 6 3 6 C3 5.34 3 4.68 3 4 C-3.76 3.12 -10.35 2.87 -17.16 2.9 C-18.71 2.9 -18.71 2.9 -20.28 2.91 C-23.54 2.91 -26.8 2.92 -30.06 2.94 C-32.29 2.94 -34.51 2.95 -36.73 2.95 C-42.15 2.96 -47.58 2.98 -53 3 C-49.9 1.2 -47.61 0.74 -44.05 0.68 C-42.58 0.65 -42.58 0.65 -41.08 0.62 C-40.02 0.61 -38.97 0.6 -37.89 0.59 C-36.81 0.57 -35.73 0.55 -34.61 0.53 C-31.16 0.47 -27.7 0.42 -24.25 0.38 C-21.91 0.34 -19.57 0.3 -17.22 0.26 C-11.48 0.16 -5.74 0.08 0 0 Z " fill="#3EA3FA" transform="translate(369,172)"/>
<path d="M0 0 C1.02 0 1.02 0 2.05 0 C4.11 -0 6.17 -0.02 8.23 -0.04 C9.52 -0.04 10.81 -0.04 12.15 -0.04 C13.34 -0.05 14.53 -0.05 15.76 -0.06 C18.75 0.19 18.75 0.19 21.75 2.19 C18.79 3.91 17.12 4.38 13.75 3.81 C7.27 2.91 0.02 2.1 -6.25 4.19 C-6.25 5.18 -6.25 6.17 -6.25 7.19 C-7.24 8.67 -7.24 8.67 -8.25 10.19 C-8.63 11.84 -8.98 13.51 -9.25 15.19 C-9.58 15.19 -9.91 15.19 -10.25 15.19 C-10.44 12.87 -10.63 10.56 -10.81 8.25 C-10.97 6.32 -10.97 6.32 -11.13 4.35 C-11.17 3.3 -11.21 2.26 -11.25 1.19 C-8.92 -1.15 -3.1 0.01 0 0 Z " fill="#1E4EA7" transform="translate(245.25,288.814453125)"/>
<path d="M0 0 C2.54 3.8 2.09 6.58 1.75 10.94 C1.7 11.7 1.65 12.46 1.59 13.24 C1.12 19.57 0.23 25.77 -1 32 C-1.19 32.98 -1.38 33.95 -1.57 34.96 C-2.04 37.31 -2.51 39.65 -3 42 C-3.33 42 -3.66 42 -4 42 C-4.03 40.13 -4.05 38.25 -4.06 36.38 C-4.07 35.33 -4.09 34.29 -4.1 33.21 C-4 30 -4 30 -3.5 27.09 C-2.91 23.42 -2.89 19.83 -2.94 16.12 C-2.94 15.44 -2.95 14.75 -2.95 14.04 C-2.96 12.36 -2.98 10.68 -3 9 C-2.01 9 -1.02 9 0 9 C0 6.03 0 3.06 0 0 Z " fill="#164BAC" transform="translate(373,282)"/>
<path d="M0 0 C0.33 0 0.66 0 1 0 C1.02 4.89 1.04 9.79 1.05 14.68 C1.06 16.34 1.07 18.01 1.08 19.67 C1.09 22.06 1.09 24.46 1.1 26.86 C1.1 27.6 1.11 28.34 1.11 29.1 C1.11 32.84 1.09 36.4 0 40 C-0.99 40.5 -0.99 40.5 -2 41 C-3.18 44.29 -3.2 47.61 -3.32 51.08 C-3.36 52.24 -3.4 53.4 -3.44 54.59 C-3.48 55.8 -3.52 57.01 -3.56 58.25 C-3.61 59.47 -3.65 60.69 -3.69 61.95 C-3.8 64.97 -3.9 67.98 -4 71 C-4.33 71 -4.66 71 -5 71 C-7.27 43.59 -7.27 43.59 -2.46 36.84 C-0.61 33.24 -0.52 30.03 -0.49 26.07 C-0.47 25.33 -0.45 24.58 -0.43 23.81 C-0.38 21.44 -0.35 19.06 -0.31 16.69 C-0.28 15.07 -0.24 13.46 -0.21 11.84 C-0.12 7.89 -0.06 3.95 0 0 Z " fill="#2C6294" transform="translate(122,145)"/>
<path d="M0 0 C0 0.33 0 0.66 0 1 C-2.98 1.29 -2.98 1.29 -5.96 1.59 C-8.3 1.93 -8.3 1.93 -11 4 C-12.44 4.17 -12.44 4.17 -13.92 4.34 C-18.78 5.38 -20.49 8.46 -23.36 12.31 C-26.64 17.69 -26.01 22.66 -25.9 28.84 C-26.09 32.97 -27.08 36.98 -28 41 C-28.33 41 -28.66 41 -29 41 C-28.89 36.94 -28.76 32.87 -28.62 28.81 C-28.59 27.66 -28.56 26.51 -28.53 25.33 C-28.49 24.21 -28.45 23.1 -28.41 21.96 C-28.38 20.94 -28.35 19.91 -28.32 18.86 C-27.98 15.86 -27.38 13.68 -26 11 C-25.01 10.34 -24.02 9.68 -23 9 C-22.7 8.36 -22.4 7.71 -22.09 7.05 C-18.05 -0.54 -7.44 -0.64 0 0 Z " fill="#3D9FF8" transform="translate(152,131)"/>
<path d="M0 0 C0.33 0 0.66 0 1 0 C1.55 14.25 -1.55 24.45 -10.9 35.12 C-13.17 37.15 -15.13 38.05 -18 39 C-17.43 36.13 -17.14 35.14 -15 33 C-14.18 32.71 -13.35 32.42 -12.5 32.12 C-9.86 31.22 -9.86 31.22 -8.69 28.88 C-8.35 27.95 -8.35 27.95 -8 27 C-7.34 27 -6.68 27 -6 27 C-5.86 26.13 -5.71 25.27 -5.56 24.38 C-4.78 19.69 -4.78 19.69 -4 15 C-3.34 15 -2.68 15 -2 15 C-1.91 14.13 -1.91 14.13 -1.82 13.24 C-1.34 8.8 -0.79 4.4 0 0 Z " fill="#103F9A" transform="translate(371,314)"/>
<path d="M0 0 C0.66 0.33 1.32 0.66 2 1 C1.34 1.66 0.68 2.32 0 3 C1.98 2.67 3.96 2.34 6 2 C2.25 5.88 2.25 5.88 0 7 C-0.5 7.82 -0.99 8.65 -1.5 9.5 C-3 12 -3 12 -5 13 C-6.39 16.73 -6.34 20.81 -6.56 24.75 C-6.61 25.45 -6.65 26.14 -6.69 26.86 C-6.8 28.58 -6.9 30.29 -7 32 C-7.33 32 -7.66 32 -8 32 C-9.17 10.03 -9.17 10.03 -3.51 3.43 C-2.76 2.72 -2.76 2.72 -2 2 C-1.34 1.34 -0.68 0.68 0 0 Z " fill="#4396D1" transform="translate(131,130)"/>
<path d="M0 0 C0.33 0 0.66 0 1 0 C1 2.64 1 5.28 1 8 C1.66 8 2.32 8 3 8 C3.06 9.07 3.12 10.14 3.18 11.25 C3.27 12.64 3.35 14.04 3.44 15.44 C3.48 16.14 3.52 16.85 3.56 17.58 C3.48 21.09 3.48 21.09 5 24 C5.27 26.88 5.47 29.74 5.62 32.62 C5.7 33.82 5.7 33.82 5.78 35.04 C6.05 39.86 5.86 44.24 5 49 C4.67 49 4.34 49 4 49 C3.42 43.47 2.86 37.94 2.29 32.4 C2.1 30.53 1.9 28.65 1.71 26.77 C1.43 24.06 1.15 21.34 0.88 18.63 C0.79 17.8 0.7 16.97 0.61 16.12 C0.07 10.72 -0.08 5.43 0 0 Z " fill="#2E69A3" transform="translate(119,224)"/>
<path d="M0 0 C1.11 0.01 2.22 0.02 3.37 0.03 C4.52 0.05 5.67 0.08 6.86 0.11 C8.03 0.12 9.2 0.13 10.4 0.15 C13.28 0.18 16.16 0.23 19.04 0.29 C19.04 0.62 19.04 0.95 19.04 1.29 C17.98 1.32 17.98 1.32 16.89 1.35 C13.67 1.45 10.45 1.56 7.23 1.67 C6.11 1.7 4.99 1.73 3.84 1.76 C2.23 1.82 2.23 1.82 0.59 1.88 C-0.9 1.93 -0.9 1.93 -2.41 1.97 C-5.2 2.13 -5.2 2.13 -7.96 4.29 C-8.29 7.27 -8.45 10.04 -8.47 13.02 C-8.5 14.31 -8.5 14.31 -8.52 15.63 C-8.58 18.4 -8.61 21.16 -8.64 23.92 C-8.68 25.79 -8.71 27.66 -8.75 29.53 C-8.83 34.12 -8.9 38.7 -8.96 43.29 C-9.29 43.29 -9.62 43.29 -9.96 43.29 C-10.29 30.09 -10.62 16.89 -10.96 3.29 C-6.14 0.4 -5.18 -0.08 0 0 Z " fill="#498DDF" transform="translate(212.95703125,204.70703125)"/>
<path d="M0 0 C4.51 0.53 7.42 2.25 11 5 C11 5.66 11 6.32 11 7 C11.66 7 12.32 7 13 7 C14.73 8.86 14.73 8.86 16.62 11.31 C17.26 12.11 17.89 12.91 18.54 13.74 C20 16 20 16 20 19 C19.01 19 18.02 19 17 19 C17 18.34 17 17.68 17 17 C16.01 16.67 15.02 16.34 14 16 C14 14.35 14 12.7 14 11 C11.45 9.68 9.03 8.66 6.31 7.69 C5.22 7.13 4.13 6.57 3 6 C2.19 3.38 2.19 3.38 2 1 C1.34 0.67 0.68 0.34 0 0 Z " fill="#2E68B1" transform="translate(213,127)"/>
<path d="M0 0 C3.98 6.82 4.45 14.86 5.21 22.54 C5.57 26.72 5.57 26.72 8 30 C7.62 32.12 7.62 32.12 7 34 C4.08 32.54 3.72 30.26 2.67 27.31 C1.58 23.56 1.17 19.82 0.81 15.94 C0.73 15.17 0.65 14.41 0.56 13.62 C0.1 9.06 -0.08 4.59 0 0 Z " fill="#2460AB" transform="translate(127,308)"/>
<path d="M0 0 C4.52 -0.02 9.04 -0.04 13.56 -0.05 C15.1 -0.06 16.64 -0.07 18.18 -0.08 C20.39 -0.09 22.6 -0.09 24.8 -0.1 C25.49 -0.1 26.18 -0.11 26.89 -0.11 C31.77 -0.11 31.77 -0.11 34 1 C34 1.66 34 2.32 34 3 C35.32 3.33 36.64 3.66 38 4 C37.67 4.66 37.34 5.32 37 6 C36.35 5.71 35.7 5.42 35.04 5.12 C23.34 0.7 11.32 1.63 -1 2 C-0.67 1.34 -0.34 0.68 0 0 Z " fill="#3B99F9" transform="translate(182,130)"/>
<path d="M0 0 C6.93 0 13.86 0 21 0 C21 0.99 21 1.98 21 3 C13.41 3 5.82 3 -2 3 C-1.34 2.67 -0.68 2.34 0 2 C0 1.34 0 0.68 0 0 Z " fill="#317FE3" transform="translate(275,166)"/>
<path d="M0 0 C3.89 1.26 5.89 2.45 8 6 C8 6.66 8 7.32 8 8 C8.66 8 9.32 8 10 8 C12.36 12.63 12.24 16.76 12.12 21.81 C12.12 22.6 12.11 23.39 12.1 24.2 C12.07 26.13 12.04 28.07 12 30 C11.67 30 11.34 30 11 30 C11 25.05 11 20.1 11 15 C10.34 15 9.68 15 9 15 C6.46 12.39 5.08 10.87 4.75 7.19 C4.83 6.47 4.92 5.74 5 5 C4.36 4.73 3.72 4.46 3.06 4.19 C1 3 1 3 0 0 Z " fill="#3D83BB" transform="translate(373,171)"/>
<path d="M0 0 C0 0.66 0 1.32 0 2 C-0.78 2.76 -1.57 3.53 -2.38 4.31 C-7.02 9.06 -7.22 13.16 -7.18 19.55 C-7.16 20.46 -7.14 21.37 -7.12 22.31 C-7.12 23.24 -7.11 24.18 -7.1 25.13 C-7.07 27.42 -7.04 29.71 -7 32 C-7.66 32 -8.32 32 -9 32 C-9.06 28.27 -9.09 24.54 -9.12 20.81 C-9.14 19.76 -9.16 18.7 -9.18 17.62 C-9.18 16.59 -9.19 15.57 -9.2 14.52 C-9.21 13.58 -9.22 12.64 -9.23 11.68 C-8.88 7.58 -7.69 4.83 -5.06 1.69 C-3 0 -3 0 0 0 Z " fill="#5BB7F6" transform="translate(127,181)"/>
<path d="M0 0 C2 0.33 4 0.67 6 1 C0.67 3.67 -4.67 6.33 -10 9 C-10 7.02 -10 5.04 -10 3 C-9.34 3 -8.68 3 -8 3 C-8 2.01 -8 1.02 -8 0 C-5.11 -1.45 -3.14 -0.6 0 0 Z " fill="#237AE4" transform="translate(133,169)"/>
<path d="M0 0 C0.66 0.33 1.32 0.66 2 1 C2.34 3 2.34 3 2.5 5.44 C2.65 9.17 2.65 9.17 5 12 C4.35 11.84 3.69 11.68 3.02 11.52 C-0.77 10.87 -4.52 10.77 -8.36 10.68 C-9.16 10.66 -9.95 10.64 -10.76 10.62 C-13.28 10.56 -15.8 10.5 -18.31 10.44 C-20.02 10.39 -21.74 10.35 -23.45 10.31 C-27.63 10.2 -31.82 10.1 -36 10 C-36 9.67 -36 9.34 -36 9 C-24.45 9 -12.9 9 -1 9 C-1 8.34 -1 7.68 -1 7 C-0.34 7 0.32 7 1 7 C0.5 3.53 0.5 3.53 0 0 Z " fill="#266CBB" transform="translate(368,159)"/>
<path d="M0 0 C3 1 3 1 4.62 3.06 C6.32 6.67 6.66 10.09 7 14 C7.18 15.5 7.37 17 7.56 18.5 C7.71 19.66 7.85 20.81 8 22 C7.34 22.33 6.68 22.66 6 23 C4.87 25.02 4.87 25.02 4 27 C3.96 25.89 3.93 24.78 3.89 23.63 C3.54 15.37 3.04 7.79 0 0 Z " fill="#397AD9" transform="translate(298,227)"/>
<path d="M0 0 C5.7 0.59 10.81 1.4 16 4 C18.2 4.23 20.41 4.41 22.62 4.56 C23.81 4.65 25 4.73 26.23 4.82 C27.6 4.91 27.6 4.91 29 5 C29 5.33 29 5.66 29 6 C26 6.08 23 6.14 20 6.19 C18.74 6.23 18.74 6.23 17.46 6.26 C11.6 6.33 7.37 5.37 2 3 C2 2.34 2 1.68 2 1 C1.34 0.67 0.68 0.34 0 0 Z " fill="#1C52B3" transform="translate(141,350)"/>
<path d="M0 0 C1.98 0 3.96 0 6 0 C5.67 1.65 5.34 3.3 5 5 C4.34 5 3.68 5 3 5 C2.92 5.62 2.83 6.24 2.75 6.88 C2 9 2 9 -0.06 10.25 C-0.7 10.5 -1.34 10.75 -2 11 C-2.66 10.34 -3.32 9.68 -4 9 C-3.29 7.89 -3.29 7.89 -2.56 6.75 C-1.22 4.39 -0.49 2.63 0 0 Z " fill="#0F52D7" transform="translate(360,336)"/>
<path d="M0 0 C-0.33 0.66 -0.66 1.32 -1 2 C1.97 2.33 4.94 2.66 8 3 C8 3.33 8 3.66 8 4 C2.72 4 -2.56 4 -8 4 C-8 3.67 -8 3.34 -8 3 C-10.64 2.67 -13.28 2.34 -16 2 C-15.67 1.34 -15.34 0.68 -15 0 C-9.69 -1.19 -5.29 -0.84 0 0 Z " fill="#3685E5" transform="translate(336,166)"/>
<path d="M0 0 C1.32 0 2.64 0 4 0 C4.66 1.65 5.32 3.3 6 5 C-1.59 4.34 -9.18 3.68 -17 3 C-17 2.67 -17 2.34 -17 2 C-11.39 2 -5.78 2 0 2 C0 1.34 0 0.68 0 0 Z " fill="#5AA0EB" transform="translate(353,147)"/>
<path d="M0 0 C1.22 0.24 1.22 0.24 2.47 0.49 C6.52 1.07 10.42 1.15 14.5 1.12 C15.23 1.13 15.97 1.13 16.72 1.14 C20.92 1.13 24.86 0.83 29 0 C28.01 1.49 28.01 1.49 27 3 C24.51 3.39 24.51 3.39 21.41 3.4 C20.29 3.4 19.18 3.41 18.04 3.41 C16.29 3.39 16.29 3.39 14.5 3.38 C13.33 3.39 12.17 3.4 10.96 3.41 C9.85 3.41 8.74 3.4 7.59 3.4 C6.57 3.4 5.55 3.39 4.49 3.39 C3.26 3.2 3.26 3.2 2 3 C1.34 2.01 0.68 1.02 0 0 Z " fill="#D1F0FE" transform="translate(205,322)"/>
<path d="M0 0 C0.99 0 1.98 0 3 0 C1.65 3.91 -0.07 6.6 -2.81 9.69 C-3.48 10.45 -4.15 11.22 -4.83 12.01 C-7.13 14.12 -9.06 15.04 -12 16 C-11.43 13.13 -11.14 12.14 -9 10 C-8.18 9.71 -7.35 9.42 -6.5 9.12 C-3.86 8.22 -3.86 8.22 -2.69 5.88 C-2.46 5.26 -2.23 4.64 -2 4 C-1.34 4 -0.68 4 0 4 C0 2.68 0 1.36 0 0 Z " fill="#103890" transform="translate(365,337)"/>
<path d="M0 0 C0.66 1.32 1.32 2.64 2 4 C1.24 4.27 0.47 4.54 -0.31 4.81 C-4.49 6.66 -6.15 8.88 -8 13 C-9.98 12.34 -11.96 11.68 -14 11 C-11.98 9.48 -9.96 7.97 -7.93 6.46 C-7.25 5.96 -6.57 5.46 -5.88 4.94 C-5.19 4.43 -4.51 3.92 -3.8 3.4 C-1.9 1.98 -1.9 1.98 0 0 Z " fill="#1057D0" transform="translate(294,275)"/>
<path d="M0 0 C0 0.66 0 1.32 0 2 C-6.05 3.76 -12.92 3.62 -19 2 C-19 1.67 -19 1.34 -19 1 C-12.63 0.04 -6.44 -0.11 0 0 Z " fill="#5BB9FF" transform="translate(366,169)"/>
<path d="M0 0 C0.33 0 0.66 0 1 0 C1.06 0.86 1.12 1.71 1.18 2.6 C1.69 9.77 1.69 9.77 2.69 16.88 C3.08 20.8 2.29 23.29 1 27 C0.67 27 0.34 27 0 27 C0 18.09 0 9.18 0 0 Z " fill="#2E60BE" transform="translate(234,294)"/>
<path d="M0 0 C4.75 1.88 4.75 1.88 7 3 C7 3.66 7 4.32 7 5 C7.66 5 8.32 5 9 5 C9.66 6.65 10.32 8.3 11 10 C6.24 7.53 3.07 5.54 0 1 C0 0.67 0 0.34 0 0 Z " fill="#497BB1" transform="translate(357,148)"/>
<path d="M0 0 C2.31 0 4.62 0 7 0 C6.01 0.66 5.02 1.32 4 2 C4 2.99 4 3.98 4 5 C3.01 6.49 3.01 6.49 2 8 C1.62 9.66 1.27 11.32 1 13 C0.67 13 0.34 13 0 13 C0 8.67 0 4.33 0 0 Z " fill="#0F49BB" transform="translate(235,291)"/>
<path d="M0 0 C0.99 0 1.98 0 3 0 C2.89 2.13 2.76 4.25 2.62 6.38 C2.52 8.15 2.52 8.15 2.41 9.96 C2 13 2 13 0 15 C0 10.05 0 5.1 0 0 Z " fill="#1462DA" transform="translate(370,291)"/>
<path d="M0 0 C0.66 0 1.32 0 2 0 C4.36 4.63 4.24 8.76 4.12 13.81 C4.12 14.6 4.11 15.39 4.1 16.2 C4.07 18.13 4.04 20.07 4 22 C3.67 22 3.34 22 3 22 C3 17.05 3 12.1 3 7 C2.34 7 1.68 7 1 7 C0.67 4.69 0.34 2.38 0 0 Z " fill="#163B73" transform="translate(381,179)"/>
<path d="M0 0 C3.37 0.55 5.08 1.05 8 3 C8.19 5.62 8.19 5.62 8 8 C5.56 7.31 5.56 7.31 3 6 C2.31 3.44 2.31 3.44 2 1 C1.34 0.67 0.68 0.34 0 0 Z " fill="#3F80C6" transform="translate(213,127)"/>
<path d="M0 0 C0.66 0 1.32 0 2 0 C2.81 1.62 2.81 1.62 3 4 C1.53 6.25 -0.16 8.02 -2 10 C-3.39 5.82 -1.82 3.87 0 0 Z " fill="#2658B8" transform="translate(267,252)"/>
<path d="M0 0 C1.98 0 3.96 0 6 0 C6.33 0.99 6.66 1.98 7 3 C7.66 3 8.32 3 9 3 C9.66 4.65 10.32 6.3 11 8 C10.01 8.5 10.01 8.5 9 9 C8.44 7.86 8.44 7.86 7.88 6.69 C5.64 3.48 3.56 2.5 0 1 C0 0.67 0 0.34 0 0 Z " fill="#CDE5F8" transform="translate(261,233)"/>
<path d="M0 0 C1.32 0.33 2.64 0.66 4 1 C1.51 3.67 -0.63 5.56 -4 7 C-4 5.02 -4 3.04 -4 1 C-3.01 1.33 -2.02 1.66 -1 2 C-0.67 1.34 -0.34 0.68 0 0 Z " fill="#2A7DDF" transform="translate(127,171)"/>
<path d="M0 0 C0.33 0 0.66 0 1 0 C1 4.29 1 8.58 1 13 C-1.3 9.56 -1.54 7.06 -2 3 C-1.34 3 -0.68 3 0 3 C0 2.01 0 1.02 0 0 Z " fill="#1E66D4" transform="translate(374,272)"/>
<path d="M0 0 C4.75 0.75 4.75 0.75 7 3 C6.01 3.5 6.01 3.5 5 4 C4.34 3.67 3.68 3.34 3 3 C3 3.66 3 4.32 3 5 C1.68 5 0.36 5 -1 5 C-0.67 3.35 -0.34 1.7 0 0 Z " fill="#0E51C2" transform="translate(259,235)"/>
<path d="M0 0 C0.9 0.38 1.81 0.77 2.74 1.16 C4.11 1.73 4.11 1.73 5.5 2.31 C6.2 2.61 6.9 2.91 7.62 3.22 C3.27 4.67 -0.11 3.65 -4.38 2.22 C-4.38 1.56 -4.38 0.9 -4.38 0.22 C-2.38 -0.78 -2.38 -0.78 0 0 Z " fill="#DAF0FE" transform="translate(278.3828125,210.77734375)"/>
<path d="M0 0 C1.65 0.33 3.3 0.66 5 1 C3.68 2.65 2.36 4.3 1 6 C-0.32 5.01 -1.64 4.02 -3 3 C-2.67 2.34 -2.34 1.68 -2 1 C-1.34 1.33 -0.68 1.66 0 2 C0 1.34 0 0.68 0 0 Z " fill="#1A5CC6" transform="translate(139,344)"/>
<path d="M0 0 C2.62 1.05 3.79 1.65 5.25 4.12 C5.5 4.74 5.75 5.36 6 6 C4.35 6 2.7 6 1 6 C0.67 4.02 0.34 2.04 0 0 Z " fill="#3091F7" transform="translate(376,180)"/>
<path d="M0 0 C0.66 0.33 1.32 0.66 2 1 C0.91 1.87 -0.2 2.72 -1.31 3.56 C-1.93 4.04 -2.54 4.51 -3.18 5 C-3.78 5.33 -4.38 5.66 -5 6 C-5.99 5.67 -6.98 5.34 -8 5 C-5.31 2.75 -3.35 1.12 0 0 Z " fill="#63BBED" transform="translate(138,128)"/>
<path d="M0 0 C0.99 0.33 1.98 0.66 3 1 C-0.46 3.97 -0.46 3.97 -4 7 C-4.33 6.01 -4.66 5.02 -5 4 C-2.69 1.94 -2.69 1.94 0 0 Z " fill="#CBE9FD" transform="translate(292,272)"/>
<path d="M0 0 C-1.32 1.32 -2.64 2.64 -4 4 C-5.32 3.34 -6.64 2.68 -8 2 C-5.44 -0.56 -3.38 -1.69 0 0 Z " fill="#D5EDFB" transform="translate(262,264)"/>
<path d="M0 0 C2 1 4 2 6 3 C5.67 4.32 5.34 5.64 5 7 C2.5 5.19 2.5 5.19 0 3 C0 2.01 0 1.02 0 0 Z " fill="#3993F9" transform="translate(221,135)"/>
<path d="M0 0 C0.33 0.66 0.66 1.32 1 2 C3.02 3.13 3.02 3.13 5 4 C4.67 5.32 4.34 6.64 4 8 C1.45 6.72 1.07 5.6 0 3 C0 2.01 0 1.02 0 0 Z " fill="#1C57AF" transform="translate(130,334)"/>
<path d="M0 0 C-1.18 1.52 -1.18 1.52 -3 3 C-5.48 3.07 -5.48 3.07 -8.19 2.69 C-9.54 2.51 -9.54 2.51 -10.92 2.32 C-11.95 2.16 -11.95 2.16 -13 2 C-13 1.67 -13 1.34 -13 1 C-8.62 0.41 -4.42 -0.14 0 0 Z " fill="#1251C8" transform="translate(267,290)"/>
<path d="M0 0 C-0.56 0.25 -1.11 0.5 -1.69 0.75 C-4.4 2.22 -6.64 4.03 -9 6 C-9.33 5.01 -9.66 4.02 -10 3 C-6.49 0.59 -4.27 -0.37 0 0 Z " fill="#3B8AE0" transform="translate(212,205)"/>
<path d="M0 0 C0.66 0 1.32 0 2 0 C2 1.32 2 2.64 2 4 C1.36 4.1 0.72 4.21 0.06 4.31 C-0.62 4.54 -1.3 4.77 -2 5 C-2.33 5.99 -2.66 6.98 -3 8 C-2.45 4.63 -1.95 2.92 0 0 Z " fill="#43799A" transform="translate(120,181)"/>
<path d="M0 0 C0.99 0.33 1.98 0.66 3 1 C3 1.66 3 2.32 3 3 C3.66 3 4.32 3 5 3 C4.67 4.32 4.34 5.64 4 7 C2 5.75 2 5.75 0 4 C0 2.68 0 1.36 0 0 Z " fill="#3970B0" transform="translate(221,131)"/>
<path d="M0 0 C0 0.66 0 1.32 0 2 C-0.64 2.12 -1.28 2.25 -1.94 2.38 C-2.62 2.58 -3.3 2.79 -4 3 C-4.33 3.66 -4.66 4.32 -5 5 C-5.33 3.68 -5.66 2.36 -6 1 C-4 0 -4 0 0 0 Z " fill="#2079F2" transform="translate(131,168)"/>
</svg>
